<svg width="24" height="24" viewBox="0 0 24 24" fill="none" xmlns="http://www.w3.org/2000/svg">
<path d="M12 21C16.9706 21 21 16.9706 21 12C21 7.02944 16.9706 3 12 3C7.02944 3 3 7.02944 3 12C3 16.9706 7.02944 21 12 21Z" fill="#AEB4C6"/>
<path d="M11.686 14.093C11.686 13.5775 11.75 13.1667 11.8779 12.8605C12.0058 12.5543 12.2578 12.219 12.6337 11.8547C13.0136 11.4864 13.2539 11.2248 13.3547 11.0698C13.5097 10.8333 13.5872 10.5775 13.5872 10.3023C13.5872 9.93798 13.4961 9.66085 13.314 9.47093C13.1357 9.27713 12.8721 9.18023 12.5233 9.18023C12.1899 9.18023 11.9205 9.27519 11.7151 9.46512C11.5136 9.65116 11.4128 9.90504 11.4128 10.2267H10C10.0078 9.5407 10.2403 8.99806 10.6977 8.59884C11.1589 8.19961 11.7674 8 12.5233 8C13.3023 8 13.9089 8.19767 14.343 8.59302C14.781 8.98837 15 9.5407 15 10.25C15 10.8818 14.7054 11.5039 14.1163 12.1163L13.4012 12.8198C13.1453 13.1105 13.0136 13.5349 13.0058 14.093H11.686ZM11.5872 15.9012C11.5872 15.6725 11.6589 15.4884 11.8023 15.3488C11.9457 15.2054 12.1395 15.1337 12.3837 15.1337C12.6318 15.1337 12.8275 15.2074 12.9709 15.3547C13.1143 15.4981 13.186 15.6802 13.186 15.9012C13.186 16.1143 13.1163 16.2926 12.9767 16.436C12.8372 16.5795 12.6395 16.6512 12.3837 16.6512C12.1279 16.6512 11.9302 16.5795 11.7907 16.436C11.655 16.2926 11.5872 16.1143 11.5872 15.9012Z" fill="white"/>
</svg>
